<?xml version="1.0" encoding="utf-8"?>
<!-- Generator: Adobe Illustrator 19.0.0, SVG Export Plug-In . SVG Version: 6.00 Build 0)  -->
<svg version="1.1" id="Ebene_1" xmlns="http://www.w3.org/2000/svg" xmlns:xlink="http://www.w3.org/1999/xlink" x="0px" y="0px"
	 viewBox="0 0 1024 768" style="enable-background:new 0 0 1024 768;" xml:space="preserve">
<style type="text/css">
	.st0{fill:#333333;stroke:#000000;stroke-miterlimit:10;}
	.st1{fill:#CCCCCC;}
</style>
<rect id="XMLID_1_" class="st0" width="1024" height="768"/>
<g id="Timeline">
	<path id="XMLID_10_" class="st1" d="M89,138.9c0,0,3.3-0.3,9.5-1c6.2-0.6,15.2-1.4,26.8-2.4c11.5-1,25.5-1.9,41.6-2.8
		c16.1-1,34.3-1.7,54.1-2.3c5-0.1,10-0.3,15.2-0.4c5.2-0.1,10.4-0.2,15.8-0.3c10.7-0.2,21.8-0.1,33.1,0c22.7,0.1,46.7,1,71.5,2.4
		c24.8,1.5,50.3,3.3,76.3,4.5c6.5,0.3,13,0.5,19.6,0.7c6.5,0.2,13.1,0.4,19.7,0.5c13.2,0.2,26.4,0.3,39.6,0.4
		c13.2,0,26.4-0.2,39.6-0.5c13.2-0.3,26.3-0.7,39.3-1.2c26-0.9,51.6-1.7,76.4-2.5c12.4-0.4,24.6-0.8,36.5-1.1
		c11.9-0.3,23.6-0.7,34.9-1c22.7-0.7,44.2-1.2,64-1.6c19.8-0.5,38-0.9,54.1-1.2c16.1-0.3,30.1-0.6,41.7-0.8
		c23.1-0.4,36.3-0.6,36.3-0.6l0,0.3c0,0-13.2,0.5-36.3,1.5c-11.6,0.4-25.6,1-41.7,1.6c-16.1,0.6-34.3,1.2-54.1,1.9
		c-19.8,0.7-41.3,1.4-64,2.1c-22.7,0.7-46.6,1.4-71.4,2.2c-24.8,0.7-50.4,1.4-76.4,2.1c-13,0.3-26.1,0.6-39.3,0.8
		c-13.2,0.1-26.4,0.1-39.6-0.1c-13.2-0.2-26.4-0.5-39.6-0.9c-6.6-0.2-13.2-0.4-19.7-0.6c-6.5-0.3-13.1-0.5-19.6-0.8
		c-13-0.6-25.9-1.2-38.6-1.9c-12.7-0.7-25.3-1.3-37.7-1.9c-12.4-0.5-24.5-0.9-36.5-1.1c-6-0.1-11.9-0.2-17.7-0.2
		c-5.8-0.1-11.6-0.1-17.3-0.1c-11.4,0-22.4,0-33.1,0.1c-5.3,0-10.6,0.1-15.7,0.2c-5.2,0.1-10.2,0.2-15.2,0.3
		c-19.8,0.4-38,1.1-54.1,1.8c-16.1,0.7-30.1,1.5-41.6,2.1c-11.5,0.7-20.6,1.3-26.8,1.7c-6.2,0.4-9.5,0.7-9.5,0.7L89,138.9z"/>
</g>
</svg>
